<svg width="428" height="454" viewBox="0 0 428 454" fill="none" xmlns="http://www.w3.org/2000/svg">
<mask id="mask0_93_2" style="mask-type:alpha" maskUnits="userSpaceOnUse" x="153" y="0" width="404" height="376">
<path d="M556.576 202.525L415.5 375.5L356 316L296.5 375.5L153.526 202.525L355.051 0.999763L556.576 202.525Z" fill="white"/>
</mask>
<g mask="url(#mask0_93_2)">
<g filter="url(#filter0_f_93_2)">
<rect x="355.85" y="316" width="61.993" height="61.993" transform="rotate(45 355.85 316)" fill="#8F00FF"/>
</g>
</g>
<path opacity="0.3" d="M276.051 516.525L74.5253 718.051L-127 516.525L75 316L276.051 516.525Z" fill="url(#paint0_linear_93_2)"/>
<rect opacity="0.3" x="370.051" y="517.525" width="285" height="285" transform="rotate(135 370.051 517.525)" fill="url(#paint1_linear_93_2)"/>
<path opacity="0.3" d="M464.051 517.525L262.525 719.051L60.9999 517.525L262 316L464.051 517.525Z" fill="url(#paint2_linear_93_2)"/>
<path opacity="0.3" d="M558.051 518.525L356.525 720.051L155 518.525L356 316L558.051 518.525Z" fill="url(#paint3_linear_93_2)"/>
<mask id="mask1_93_2" style="mask-type:alpha" maskUnits="userSpaceOnUse" x="-128" y="0" width="404" height="381">
<path d="M275.788 201.525L139.237 380.5L75 316L14.2374 376.5L-127.263 201.525L74.2626 -1.58449e-05L275.788 201.525Z" fill="white"/>
</mask>
<g mask="url(#mask1_93_2)">
<g filter="url(#filter1_f_93_2)">
<rect x="74.8359" y="305.836" width="76.3672" height="76.3672" transform="rotate(45 74.8359 305.836)" fill="#E4BDFC"/>
</g>
</g>
<path d="M75.082 316.082L118.754 359.918L81.989 396.682C78.0838 400.588 71.7521 400.588 67.8469 396.682L31.0823 359.918L75.082 316.082Z" fill="#D9D9D9"/>
<mask id="mask2_93_2" style="mask-type:alpha" maskUnits="userSpaceOnUse" x="-34" y="0" width="404" height="381">
<path d="M369.55 201.525L233 380.5L168.5 316L108 376.5L-33.5004 201.525L168.025 -1.58449e-05L369.55 201.525Z" fill="white"/>
</mask>
<g mask="url(#mask2_93_2)">
<g filter="url(#filter2_f_93_2)">
<rect x="169" y="316" width="61.993" height="61.993" transform="rotate(45 169 316)" fill="#40E0D0"/>
</g>
</g>
<path d="M168.507 316L212.343 359.836L175.578 396.6C171.673 400.506 165.341 400.506 161.436 396.6L124.672 359.836L168.507 316Z" fill="#D9D9D9"/>
<mask id="mask3_93_2" style="mask-type:alpha" maskUnits="userSpaceOnUse" x="60" y="0" width="404" height="381">
<path d="M463.665 201.639L327.114 380.613L262.139 316.113L202.089 376.113L60.6137 201.639L262.139 0.113358L463.665 201.639Z" fill="white"/>
</mask>
<g mask="url(#mask3_93_2)">
<g filter="url(#filter3_f_93_2)">
<rect x="262.178" y="316" width="61.993" height="61.993" transform="rotate(45 262.178 316)" fill="#98C0FB"/>
</g>
</g>
<path d="M262 316L305.836 359.836L269.071 396.6C265.166 400.506 258.834 400.506 254.929 396.6L218.164 359.836L262 316Z" fill="#D9D9D9"/>
<path d="M356 316L400 360L362.907 396.691C359.001 400.555 352.71 400.544 348.817 396.667L312 360L356 316Z" fill="#D9D9D9"/>
<defs>
<filter id="filter0_f_93_2" x="297.014" y="301" width="117.671" height="117.671" filterUnits="userSpaceOnUse" color-interpolation-filters="sRGB">
<feFlood flood-opacity="0" result="BackgroundImageFix"/>
<feBlend mode="normal" in="SourceGraphic" in2="BackgroundImageFix" result="shape"/>
<feGaussianBlur stdDeviation="7.5" result="effect1_foregroundBlur_93_2"/>
</filter>
<filter id="filter1_f_93_2" x="5.83618" y="290.836" width="138" height="138" filterUnits="userSpaceOnUse" color-interpolation-filters="sRGB">
<feFlood flood-opacity="0" result="BackgroundImageFix"/>
<feBlend mode="normal" in="SourceGraphic" in2="BackgroundImageFix" result="shape"/>
<feGaussianBlur stdDeviation="7.5" result="effect1_foregroundBlur_93_2"/>
</filter>
<filter id="filter2_f_93_2" x="110.164" y="301" width="117.671" height="117.671" filterUnits="userSpaceOnUse" color-interpolation-filters="sRGB">
<feFlood flood-opacity="0" result="BackgroundImageFix"/>
<feBlend mode="normal" in="SourceGraphic" in2="BackgroundImageFix" result="shape"/>
<feGaussianBlur stdDeviation="7.5" result="effect1_foregroundBlur_93_2"/>
</filter>
<filter id="filter3_f_93_2" x="203.343" y="301" width="117.671" height="117.671" filterUnits="userSpaceOnUse" color-interpolation-filters="sRGB">
<feFlood flood-opacity="0" result="BackgroundImageFix"/>
<feBlend mode="normal" in="SourceGraphic" in2="BackgroundImageFix" result="shape"/>
<feGaussianBlur stdDeviation="7.5" result="effect1_foregroundBlur_93_2"/>
</filter>
<linearGradient id="paint0_linear_93_2" x1="185.551" y1="420.5" x2="-16.4492" y2="622.5" gradientUnits="userSpaceOnUse">
<stop stop-color="#D9D9D9" stop-opacity="0.25"/>
<stop offset="1" stop-color="#D9D9D9" stop-opacity="0"/>
<stop offset="1" stop-color="#D9D9D9" stop-opacity="0"/>
</linearGradient>
<linearGradient id="paint1_linear_93_2" x1="366.144" y1="649.419" x2="651.815" y2="649.419" gradientUnits="userSpaceOnUse">
<stop stop-color="#D9D9D9" stop-opacity="0.25"/>
<stop offset="1" stop-color="#D9D9D9" stop-opacity="0"/>
<stop offset="1" stop-color="#D9D9D9" stop-opacity="0"/>
</linearGradient>
<linearGradient id="paint2_linear_93_2" x1="373.551" y1="421.5" x2="171.551" y2="623.5" gradientUnits="userSpaceOnUse">
<stop stop-color="#D9D9D9" stop-opacity="0.25"/>
<stop offset="1" stop-color="#D9D9D9" stop-opacity="0"/>
<stop offset="1" stop-color="#D9D9D9" stop-opacity="0"/>
</linearGradient>
<linearGradient id="paint3_linear_93_2" x1="467.551" y1="422.5" x2="265.551" y2="624.5" gradientUnits="userSpaceOnUse">
<stop stop-color="#D9D9D9" stop-opacity="0.25"/>
<stop offset="1" stop-color="#D9D9D9" stop-opacity="0"/>
<stop offset="1" stop-color="#D9D9D9" stop-opacity="0"/>
</linearGradient>
</defs>
</svg>
