<svg width="122" height="84" viewBox="0 0 122 84" fill="none" xmlns="http://www.w3.org/2000/svg">
<rect x="62" width="58.7817" height="58.7817" transform="rotate(45 62 0)" fill="#8A8A8A"/>
<g filter="url(#filter0_df_130_158)">
<rect x="62" y="8" width="47.3853" height="47.3853" transform="rotate(45 62 8)" fill="#D9FFBB"/>
</g>
<path d="M47.3397 37.5H46.0186C45.9405 37.12 45.8038 36.7862 45.6085 36.4986C45.4167 36.2109 45.1824 35.9695 44.9054 35.7741C44.6319 35.5753 44.3283 35.4261 43.9945 35.3267C43.6607 35.2273 43.3127 35.1776 42.9505 35.1776C42.29 35.1776 41.6916 35.3445 41.1554 35.6783C40.6227 36.0121 40.1983 36.5039 39.8823 37.1538C39.5698 37.8036 39.4135 38.6009 39.4135 39.5455C39.4135 40.4901 39.5698 41.2873 39.8823 41.9371C40.1983 42.587 40.6227 43.0788 41.1554 43.4126C41.6916 43.7464 42.29 43.9134 42.9505 43.9134C43.3127 43.9134 43.6607 43.8636 43.9945 43.7642C44.3283 43.6648 44.6319 43.5174 44.9054 43.3221C45.1824 43.1232 45.4167 42.88 45.6085 42.5923C45.8038 42.3011 45.9405 41.9673 46.0186 41.5909H47.3397C47.2402 42.1484 47.0591 42.6474 46.7963 43.0877C46.5336 43.5281 46.2069 43.9027 45.8162 44.2116C45.4256 44.517 44.987 44.7496 44.5005 44.9094C44.0176 45.0692 43.5009 45.1491 42.9505 45.1491C42.0201 45.1491 41.1926 44.9219 40.4682 44.4673C39.7438 44.0128 39.1738 43.3665 38.7583 42.5284C38.3429 41.6903 38.1351 40.696 38.1351 39.5455C38.1351 38.3949 38.3429 37.4006 38.7583 36.5625C39.1738 35.7244 39.7438 35.0781 40.4682 34.6236C41.1926 34.169 42.0201 33.9418 42.9505 33.9418C43.5009 33.9418 44.0176 34.0217 44.5005 34.1815C44.987 34.3413 45.4256 34.5756 45.8162 34.8846C46.2069 35.19 46.5336 35.5629 46.7963 36.0032C47.0591 36.44 47.2402 36.9389 47.3397 37.5ZM49.3039 45V36.8182H50.5184V38.054H50.6036C50.7528 37.6491 51.0226 37.3207 51.4133 37.0685C51.8039 36.8164 52.2442 36.6903 52.7343 36.6903C52.8266 36.6903 52.942 36.6921 53.0805 36.6957C53.219 36.6992 53.3238 36.7045 53.3948 36.7116V37.9901C53.3522 37.9794 53.2545 37.9634 53.1018 37.9421C52.9527 37.9173 52.7947 37.9048 52.6278 37.9048C52.23 37.9048 51.8749 37.9883 51.5624 38.1552C51.2535 38.3185 51.0084 38.5458 50.8273 38.837C50.6498 39.1246 50.561 39.4531 50.561 39.8224V45H49.3039ZM58.0663 45.1705C57.278 45.1705 56.5979 44.9964 56.0262 44.6484C55.458 44.2969 55.0194 43.8068 54.7105 43.1783C54.4051 42.5462 54.2524 41.8111 54.2524 40.973C54.2524 40.1349 54.4051 39.3963 54.7105 38.7571C55.0194 38.1143 55.4491 37.6136 55.9996 37.255C56.5535 36.8928 57.1998 36.7116 57.9385 36.7116C58.3646 36.7116 58.7854 36.7827 59.2009 36.9247C59.6164 37.0668 59.9946 37.2976 60.3355 37.6172C60.6764 37.9332 60.9481 38.3523 61.1505 38.8743C61.3529 39.3963 61.4541 40.0391 61.4541 40.8026V41.3352H55.1473V40.2486H60.1757C60.1757 39.7869 60.0834 39.375 59.8987 39.0128C59.7176 38.6506 59.4584 38.3647 59.121 38.1552C58.7872 37.9457 58.393 37.8409 57.9385 37.8409C57.4378 37.8409 57.0045 37.9652 56.6388 38.2138C56.2765 38.4588 55.9978 38.7784 55.8025 39.1726C55.6072 39.5668 55.5095 39.9893 55.5095 40.4403V41.1648C55.5095 41.7827 55.616 42.3065 55.8291 42.7362C56.0457 43.1623 56.3458 43.4872 56.7293 43.7109C57.1128 43.9311 57.5585 44.0412 58.0663 44.0412C58.3966 44.0412 58.6949 43.995 58.9612 43.9027C59.2311 43.8068 59.4637 43.6648 59.659 43.4766C59.8543 43.2848 60.0052 43.0469 60.1118 42.7628L61.3263 43.1037C61.1984 43.5156 60.9836 43.8778 60.6817 44.1903C60.3799 44.4993 60.007 44.7408 59.5631 44.9148C59.1192 45.0852 58.6203 45.1705 58.0663 45.1705ZM65.7741 45.1918C65.2556 45.1918 64.7851 45.0941 64.3625 44.8988C63.9399 44.6999 63.6043 44.4141 63.3557 44.0412C63.1072 43.6648 62.9829 43.2102 62.9829 42.6776C62.9829 42.2088 63.0752 41.8288 63.2599 41.5376C63.4445 41.2429 63.6913 41.0121 64.0003 40.8452C64.3092 40.6783 64.6501 40.554 65.023 40.4723C65.3994 40.3871 65.7776 40.3196 66.1576 40.2699C66.6547 40.206 67.0578 40.158 67.3667 40.1261C67.6792 40.0906 67.9065 40.032 68.0486 39.9503C68.1942 39.8686 68.267 39.7266 68.267 39.5241V39.4815C68.267 38.956 68.1231 38.5476 67.8355 38.2564C67.5514 37.9652 67.1199 37.8196 66.5411 37.8196C65.941 37.8196 65.4704 37.951 65.1295 38.2138C64.7886 38.4766 64.5489 38.7571 64.4104 39.0554L63.2172 38.6293C63.4303 38.1321 63.7144 37.745 64.0695 37.468C64.4282 37.1875 64.8188 36.9922 65.2414 36.8821C65.6675 36.7685 66.0866 36.7116 66.4985 36.7116C66.7613 36.7116 67.0631 36.7436 67.404 36.8075C67.7485 36.8679 68.0805 36.994 68.4001 37.1857C68.7233 37.3775 68.9914 37.6669 69.2045 38.054C69.4175 38.4411 69.5241 38.9595 69.5241 39.6094V45H68.267V43.892H68.203C68.1178 44.0696 67.9758 44.2596 67.7769 44.462C67.578 44.6644 67.3135 44.8366 66.9832 44.9787C66.653 45.1207 66.2499 45.1918 65.7741 45.1918ZM65.9658 44.0625C66.463 44.0625 66.882 43.9648 67.2229 43.7695C67.5674 43.5742 67.8266 43.3221 68.0006 43.0131C68.1782 42.7042 68.267 42.3793 68.267 42.0384V40.8878C68.2137 40.9517 68.0965 41.0103 67.9154 41.0636C67.7378 41.1133 67.5319 41.1577 67.2975 41.1967C67.0667 41.2322 66.8412 41.2642 66.621 41.2926C66.4044 41.3175 66.2286 41.3388 66.0937 41.3565C65.767 41.3991 65.4616 41.4684 65.1775 41.5643C64.8969 41.6566 64.6697 41.7969 64.4956 41.9851C64.3252 42.1697 64.24 42.4219 64.24 42.7415C64.24 43.1783 64.4015 43.5085 64.7247 43.7322C65.0514 43.9524 65.4651 44.0625 65.9658 44.0625ZM75.3768 36.8182V37.8835H71.1367V36.8182H75.3768ZM72.3725 34.858H73.6296V42.6562C73.6296 43.0114 73.6811 43.2777 73.7841 43.4553C73.8906 43.6293 74.0256 43.7464 74.1889 43.8068C74.3558 43.8636 74.5316 43.892 74.7163 43.892C74.8548 43.892 74.9684 43.8849 75.0572 43.8707C75.146 43.853 75.217 43.8388 75.2702 43.8281L75.5259 44.9574C75.4407 44.9893 75.3217 45.0213 75.169 45.0533C75.0163 45.0888 74.8228 45.1065 74.5884 45.1065C74.2333 45.1065 73.8853 45.0302 73.5444 44.8775C73.207 44.7248 72.9265 44.4922 72.7028 44.1797C72.4826 43.8672 72.3725 43.473 72.3725 42.9972V34.858ZM80.6103 45.1705C79.8219 45.1705 79.1419 44.9964 78.5701 44.6484C78.002 44.2969 77.5634 43.8068 77.2544 43.1783C76.949 42.5462 76.7963 41.8111 76.7963 40.973C76.7963 40.1349 76.949 39.3963 77.2544 38.7571C77.5634 38.1143 77.9931 37.6136 78.5435 37.255C79.0975 36.8928 79.7438 36.7116 80.4824 36.7116C80.9086 36.7116 81.3294 36.7827 81.7449 36.9247C82.1603 37.0668 82.5385 37.2976 82.8794 37.6172C83.2203 37.9332 83.492 38.3523 83.6944 38.8743C83.8968 39.3963 83.998 40.0391 83.998 40.8026V41.3352H77.6912V40.2486H82.7196C82.7196 39.7869 82.6273 39.375 82.4426 39.0128C82.2615 38.6506 82.0023 38.3647 81.665 38.1552C81.3311 37.9457 80.937 37.8409 80.4824 37.8409C79.9817 37.8409 79.5485 37.9652 79.1827 38.2138C78.8205 38.4588 78.5417 38.7784 78.3464 39.1726C78.1511 39.5668 78.0534 39.9893 78.0534 40.4403V41.1648C78.0534 41.7827 78.16 42.3065 78.373 42.7362C78.5897 43.1623 78.8897 43.4872 79.2733 43.7109C79.6568 43.9311 80.1025 44.0412 80.6103 44.0412C80.9405 44.0412 81.2388 43.995 81.5051 43.9027C81.775 43.8068 82.0076 43.6648 82.2029 43.4766C82.3983 43.2848 82.5492 43.0469 82.6557 42.7628L83.8702 43.1037C83.7424 43.5156 83.5275 43.8778 83.2257 44.1903C82.9238 44.4993 82.551 44.7408 82.1071 44.9148C81.6632 45.0852 81.1642 45.1705 80.6103 45.1705Z" fill="#282828"/>
<mask id="mask0_130_158" style="mask-type:alpha" maskUnits="userSpaceOnUse" x="0" y="14" width="36" height="53">
<rect y="14" width="36" height="53" fill="#D9D9D9"/>
</mask>
<g mask="url(#mask0_130_158)">
<path opacity="0.8" d="M31.5 14L4.5 41L30.5 67" stroke="#8B8B8B" stroke-width="6" stroke-linecap="square" stroke-linejoin="round"/>
</g>
<mask id="mask1_130_158" style="mask-type:alpha" maskUnits="userSpaceOnUse" x="86" y="14" width="36" height="53">
<rect width="36" height="53" transform="matrix(-1 0 0 1 122 14)" fill="#D9D9D9"/>
</mask>
<g mask="url(#mask1_130_158)">
<path opacity="0.8" d="M90.5 14L117.5 41L91.5 67" stroke="#8B8B8B" stroke-width="6" stroke-linecap="square" stroke-linejoin="round"/>
</g>
<defs>
<filter id="filter0_df_130_158" x="24.4937" y="4" width="75.0127" height="79.0129" filterUnits="userSpaceOnUse" color-interpolation-filters="sRGB">
<feFlood flood-opacity="0" result="BackgroundImageFix"/>
<feColorMatrix in="SourceAlpha" type="matrix" values="0 0 0 0 0 0 0 0 0 0 0 0 0 0 0 0 0 0 127 0" result="hardAlpha"/>
<feOffset dy="4"/>
<feGaussianBlur stdDeviation="2"/>
<feComposite in2="hardAlpha" operator="out"/>
<feColorMatrix type="matrix" values="0 0 0 0 0 0 0 0 0 0 0 0 0 0 0 0 0 0 0.25 0"/>
<feBlend mode="normal" in2="BackgroundImageFix" result="effect1_dropShadow_130_158"/>
<feBlend mode="normal" in="SourceGraphic" in2="effect1_dropShadow_130_158" result="shape"/>
<feGaussianBlur stdDeviation="2" result="effect2_foregroundBlur_130_158"/>
</filter>
</defs>
</svg>
