<svg width="122" height="84" viewBox="0 0 122 84" fill="none" xmlns="http://www.w3.org/2000/svg">
<rect x="62" width="58.7817" height="58.7817" transform="rotate(45 62 0)" fill="#8A8A8A"/>
<g filter="url(#filter0_df_130_62)">
<rect x="62" y="8" width="47.3853" height="47.3853" transform="rotate(45 62 8)" fill="#D9FFBB"/>
</g>
<path d="M52.3777 34.0909H53.6987V41.8892C53.6987 42.5852 53.5708 43.1765 53.3152 43.663C53.0595 44.1495 52.699 44.5188 52.2338 44.771C51.7686 45.0231 51.22 45.1491 50.5879 45.1491C49.9913 45.1491 49.4604 45.0408 48.9952 44.8242C48.53 44.604 48.1642 44.2915 47.8979 43.8867C47.6316 43.4819 47.4984 43.0007 47.4984 42.4432H48.7981C48.7981 42.7521 48.8745 43.022 49.0272 43.2528C49.1834 43.4801 49.3965 43.6577 49.6664 43.7855C49.9363 43.9134 50.2434 43.9773 50.5879 43.9773C50.9679 43.9773 51.291 43.8974 51.5574 43.7376C51.8237 43.5778 52.0261 43.3434 52.1646 43.0344C52.3066 42.7219 52.3777 42.3402 52.3777 41.8892V34.0909ZM59.4995 45.1705C58.7608 45.1705 58.1128 44.9947 57.5552 44.6431C57.0012 44.2915 56.568 43.7997 56.2555 43.1676C55.9466 42.5355 55.7921 41.7969 55.7921 40.9517C55.7921 40.0994 55.9466 39.3555 56.2555 38.7198C56.568 38.0842 57.0012 37.5906 57.5552 37.239C58.1128 36.8874 58.7608 36.7116 59.4995 36.7116C60.2381 36.7116 60.8844 36.8874 61.4384 37.239C61.9959 37.5906 62.4292 38.0842 62.7381 38.7198C63.0506 39.3555 63.2069 40.0994 63.2069 40.9517C63.2069 41.7969 63.0506 42.5355 62.7381 43.1676C62.4292 43.7997 61.9959 44.2915 61.4384 44.6431C60.8844 44.9947 60.2381 45.1705 59.4995 45.1705ZM59.4995 44.0412C60.0605 44.0412 60.5222 43.8974 60.8844 43.6097C61.2466 43.3221 61.5147 42.9439 61.6887 42.4751C61.8628 42.0064 61.9498 41.4986 61.9498 40.9517C61.9498 40.4048 61.8628 39.8952 61.6887 39.4229C61.5147 38.9506 61.2466 38.5689 60.8844 38.2777C60.5222 37.9865 60.0605 37.8409 59.4995 37.8409C58.9384 37.8409 58.4767 37.9865 58.1145 38.2777C57.7523 38.5689 57.4842 38.9506 57.3102 39.4229C57.1362 39.8952 57.0492 40.4048 57.0492 40.9517C57.0492 41.4986 57.1362 42.0064 57.3102 42.4751C57.4842 42.9439 57.7523 43.3221 58.1145 43.6097C58.4767 43.8974 58.9384 44.0412 59.4995 44.0412ZM65.1258 45V36.8182H66.3829V45H65.1258ZM65.765 35.4545C65.52 35.4545 65.3087 35.3711 65.1311 35.2042C64.9571 35.0373 64.8701 34.8366 64.8701 34.6023C64.8701 34.3679 64.9571 34.1673 65.1311 34.0004C65.3087 33.8335 65.52 33.75 65.765 33.75C66.01 33.75 66.2196 33.8335 66.3936 34.0004C66.5711 34.1673 66.6599 34.3679 66.6599 34.6023C66.6599 34.8366 66.5711 35.0373 66.3936 35.2042C66.2196 35.3711 66.01 35.4545 65.765 35.4545ZM69.9425 40.0781V45H68.6854V36.8182H69.8999V38.0966H70.0064C70.1982 37.6811 70.4893 37.3473 70.88 37.0952C71.2706 36.8395 71.7749 36.7116 72.3928 36.7116C72.9467 36.7116 73.4315 36.8253 73.8469 37.0526C74.2624 37.2763 74.5856 37.6172 74.8164 38.0753C75.0472 38.5298 75.1626 39.1051 75.1626 39.8011V45H73.9055V39.8864C73.9055 39.2436 73.7386 38.7429 73.4048 38.3842C73.071 38.022 72.6129 37.8409 72.0305 37.8409C71.6293 37.8409 71.2706 37.9279 70.9545 38.1019C70.642 38.2759 70.3952 38.5298 70.2141 38.8636C70.033 39.1974 69.9425 39.6023 69.9425 40.0781Z" fill="#282828"/>
<mask id="mask0_130_62" style="mask-type:alpha" maskUnits="userSpaceOnUse" x="0" y="14" width="36" height="53">
<rect y="14" width="36" height="53" fill="#D9D9D9"/>
</mask>
<g mask="url(#mask0_130_62)">
<path opacity="0.8" d="M31.5 14L4.5 41L30.5 67" stroke="#8B8B8B" stroke-width="6" stroke-linecap="square" stroke-linejoin="round"/>
</g>
<mask id="mask1_130_62" style="mask-type:alpha" maskUnits="userSpaceOnUse" x="86" y="14" width="36" height="53">
<rect width="36" height="53" transform="matrix(-1 0 0 1 122 14)" fill="#D9D9D9"/>
</mask>
<g mask="url(#mask1_130_62)">
<path opacity="0.8" d="M90.5 14L117.5 41L91.5 67" stroke="#8B8B8B" stroke-width="6" stroke-linecap="square" stroke-linejoin="round"/>
</g>
<defs>
<filter id="filter0_df_130_62" x="24.4937" y="4" width="75.0127" height="79.0129" filterUnits="userSpaceOnUse" color-interpolation-filters="sRGB">
<feFlood flood-opacity="0" result="BackgroundImageFix"/>
<feColorMatrix in="SourceAlpha" type="matrix" values="0 0 0 0 0 0 0 0 0 0 0 0 0 0 0 0 0 0 127 0" result="hardAlpha"/>
<feOffset dy="4"/>
<feGaussianBlur stdDeviation="2"/>
<feComposite in2="hardAlpha" operator="out"/>
<feColorMatrix type="matrix" values="0 0 0 0 0 0 0 0 0 0 0 0 0 0 0 0 0 0 0.25 0"/>
<feBlend mode="normal" in2="BackgroundImageFix" result="effect1_dropShadow_130_62"/>
<feBlend mode="normal" in="SourceGraphic" in2="effect1_dropShadow_130_62" result="shape"/>
<feGaussianBlur stdDeviation="2" result="effect2_foregroundBlur_130_62"/>
</filter>
</defs>
</svg>
